<svg width="40" height="38" viewBox="0 0 40 38" fill="none" xmlns="http://www.w3.org/2000/svg">
<g filter="url(#filter0_d_107_628)">
<path d="M11.6667 21.3333C12.7778 23.4762 16 26.3333 20 26.3333C24 26.3333 27.2223 23.4762 28.3334 21.3333M36.6667 18C36.6667 27.2047 29.2048 34.6666 20 34.6666C10.7953 34.6666 3.33337 27.2047 3.33337 18C3.33337 8.79523 10.7953 1.33331 20 1.33331C29.2048 1.33331 36.6667 8.79523 36.6667 18Z" stroke="#2D264B" stroke-width="1.5" stroke-linecap="round"/>
<path d="M16.6667 11.3333C16.6667 12.2538 15.9205 13 15 13C14.0796 13 13.3334 12.2538 13.3334 11.3333C13.3334 10.4128 14.0796 9.66663 15 9.66663C15.9205 9.66663 16.6667 10.4128 16.6667 11.3333Z" fill="#2D264B"/>
<path d="M26.6667 11.3333C26.6667 12.2538 25.9205 13 25 13C24.0796 13 23.3334 12.2538 23.3334 11.3333C23.3334 10.4128 24.0796 9.66663 25 9.66663C25.9205 9.66663 26.6667 10.4128 26.6667 11.3333Z" fill="#2D264B"/>
</g>
<defs>
<filter id="filter0_d_107_628" x="-1.41663" y="0.583313" width="42.8334" height="42.8333" filterUnits="userSpaceOnUse" color-interpolation-filters="sRGB">
<feFlood flood-opacity="0" result="BackgroundImageFix"/>
<feColorMatrix in="SourceAlpha" type="matrix" values="0 0 0 0 0 0 0 0 0 0 0 0 0 0 0 0 0 0 127 0" result="hardAlpha"/>
<feOffset dy="4"/>
<feGaussianBlur stdDeviation="2"/>
<feComposite in2="hardAlpha" operator="out"/>
<feColorMatrix type="matrix" values="0 0 0 0 0 0 0 0 0 0 0 0 0 0 0 0 0 0 0.25 0"/>
<feBlend mode="normal" in2="BackgroundImageFix" result="effect1_dropShadow_107_628"/>
<feBlend mode="normal" in="SourceGraphic" in2="effect1_dropShadow_107_628" result="shape"/>
</filter>
</defs>
</svg>
